<mxfile host="65bd71144e">
    <diagram id="Aw0Czm4y0e_7j45PtQoB" name="第 1 页">
        <mxGraphModel dx="1547" dy="735" grid="1" gridSize="10" guides="1" tooltips="1" connect="1" arrows="1" fold="1" page="1" pageScale="1" pageWidth="1169" pageHeight="827" math="0" shadow="0">
            <root>
                <mxCell id="0"/>
                <mxCell id="1" parent="0"/>
                <mxCell id="19" value="" style="group" vertex="1" connectable="0" parent="1">
                    <mxGeometry x="50" y="20" width="280" height="150" as="geometry"/>
                </mxCell>
                <mxCell id="4" value="Fighter" style="whiteSpace=wrap;html=1;" vertex="1" parent="19">
                    <mxGeometry x="80" width="80" height="40" as="geometry"/>
                </mxCell>
                <mxCell id="5" value="Undead" style="whiteSpace=wrap;html=1;" vertex="1" parent="19">
                    <mxGeometry y="80" width="80" height="40" as="geometry"/>
                </mxCell>
                <mxCell id="10" style="edgeStyle=none;html=1;exitX=0.5;exitY=1;exitDx=0;exitDy=0;entryX=0.5;entryY=0;entryDx=0;entryDy=0;" edge="1" parent="19" source="4" target="5">
                    <mxGeometry relative="1" as="geometry"/>
                </mxCell>
                <mxCell id="6" value="Element" style="whiteSpace=wrap;html=1;" vertex="1" parent="19">
                    <mxGeometry x="80" y="80" width="80" height="40" as="geometry"/>
                </mxCell>
                <mxCell id="9" style="edgeStyle=none;html=1;exitX=0.5;exitY=1;exitDx=0;exitDy=0;entryX=0.5;entryY=0;entryDx=0;entryDy=0;" edge="1" parent="19" source="4" target="6">
                    <mxGeometry relative="1" as="geometry"/>
                </mxCell>
                <mxCell id="7" value="Mechanic" style="whiteSpace=wrap;html=1;" vertex="1" parent="19">
                    <mxGeometry x="160" y="80" width="80" height="40" as="geometry"/>
                </mxCell>
                <mxCell id="11" style="edgeStyle=none;html=1;exitX=0.5;exitY=1;exitDx=0;exitDy=0;entryX=0.5;entryY=0;entryDx=0;entryDy=0;" edge="1" parent="19" source="4" target="7">
                    <mxGeometry relative="1" as="geometry"/>
                </mxCell>
                <mxCell id="8" value="V1" style="text;html=1;align=center;verticalAlign=middle;resizable=0;points=[];autosize=1;strokeColor=none;fillColor=none;" vertex="1" parent="19">
                    <mxGeometry x="20" y="5" width="40" height="30" as="geometry"/>
                </mxCell>
                <mxCell id="12" value="kill(m*)" style="text;html=1;align=center;verticalAlign=middle;resizable=0;points=[];autosize=1;strokeColor=none;fillColor=none;" vertex="1" parent="19">
                    <mxGeometry x="160" y="40" width="60" height="30" as="geometry"/>
                </mxCell>
                <mxCell id="14" value="kill(u*)" style="text;html=1;align=center;verticalAlign=middle;resizable=0;points=[];autosize=1;strokeColor=none;fillColor=none;" vertex="1" parent="19">
                    <mxGeometry x="30" y="40" width="60" height="30" as="geometry"/>
                </mxCell>
                <mxCell id="15" value="kill(e*)" style="text;html=1;align=center;verticalAlign=middle;resizable=0;points=[];autosize=1;strokeColor=none;fillColor=none;" vertex="1" parent="19">
                    <mxGeometry x="110" y="50" width="60" height="30" as="geometry"/>
                </mxCell>
                <mxCell id="16" value="底层组件(具体类)" style="text;html=1;align=center;verticalAlign=middle;resizable=0;points=[];autosize=1;strokeColor=none;fillColor=none;" vertex="1" parent="19">
                    <mxGeometry x="60" y="120" width="120" height="30" as="geometry"/>
                </mxCell>
                <mxCell id="17" value="高层组件" style="text;html=1;align=center;verticalAlign=middle;resizable=0;points=[];autosize=1;strokeColor=none;fillColor=none;" vertex="1" parent="19">
                    <mxGeometry x="155" y="5" width="70" height="30" as="geometry"/>
                </mxCell>
                <mxCell id="18" value="直接操作" style="text;html=1;align=center;verticalAlign=middle;resizable=0;points=[];autosize=1;strokeColor=none;fillColor=none;" vertex="1" parent="19">
                    <mxGeometry x="210" y="40" width="70" height="30" as="geometry"/>
                </mxCell>
                <mxCell id="42" value="" style="group" vertex="1" connectable="0" parent="1">
                    <mxGeometry x="40" y="200" width="240" height="230" as="geometry"/>
                </mxCell>
                <mxCell id="21" value="Fighter" style="whiteSpace=wrap;html=1;" vertex="1" parent="42">
                    <mxGeometry x="80" width="80" height="40" as="geometry"/>
                </mxCell>
                <mxCell id="22" value="Undead&lt;br&gt;&lt;i style=&quot;border-color: var(--border-color);&quot;&gt;+isKilled()&lt;/i&gt;" style="whiteSpace=wrap;html=1;" vertex="1" parent="42">
                    <mxGeometry y="160" width="80" height="40" as="geometry"/>
                </mxCell>
                <mxCell id="24" value="Element&lt;br&gt;&lt;i style=&quot;border-color: var(--border-color);&quot;&gt;+isKilled()&lt;/i&gt;" style="whiteSpace=wrap;html=1;" vertex="1" parent="42">
                    <mxGeometry x="80" y="160" width="80" height="40" as="geometry"/>
                </mxCell>
                <mxCell id="26" value="Mechanic&lt;br&gt;&lt;i style=&quot;border-color: var(--border-color);&quot;&gt;+isKilled()&lt;/i&gt;" style="whiteSpace=wrap;html=1;" vertex="1" parent="42">
                    <mxGeometry x="160" y="160" width="80" height="40" as="geometry"/>
                </mxCell>
                <mxCell id="39" style="edgeStyle=orthogonalEdgeStyle;html=1;exitX=0.5;exitY=0;exitDx=0;exitDy=0;entryX=0.5;entryY=0;entryDx=0;entryDy=0;rounded=0;endArrow=none;endFill=0;" edge="1" parent="42" source="22" target="26">
                    <mxGeometry relative="1" as="geometry">
                        <mxPoint x="160" y="130" as="targetPoint"/>
                        <Array as="points">
                            <mxPoint x="40" y="140"/>
                            <mxPoint x="200" y="140"/>
                        </Array>
                    </mxGeometry>
                </mxCell>
                <mxCell id="28" value="V2" style="text;html=1;align=center;verticalAlign=middle;resizable=0;points=[];autosize=1;strokeColor=none;fillColor=none;" vertex="1" parent="42">
                    <mxGeometry x="30" y="5" width="40" height="30" as="geometry"/>
                </mxCell>
                <mxCell id="32" value="底层组件(具体类)" style="text;html=1;align=center;verticalAlign=middle;resizable=0;points=[];autosize=1;strokeColor=none;fillColor=none;" vertex="1" parent="42">
                    <mxGeometry x="60" y="200" width="120" height="30" as="geometry"/>
                </mxCell>
                <mxCell id="33" value="高层组件" style="text;html=1;align=center;verticalAlign=middle;resizable=0;points=[];autosize=1;strokeColor=none;fillColor=none;" vertex="1" parent="42">
                    <mxGeometry x="165" y="5" width="70" height="30" as="geometry"/>
                </mxCell>
                <mxCell id="34" value="间接操作" style="text;html=1;align=center;verticalAlign=middle;resizable=0;points=[];autosize=1;strokeColor=none;fillColor=none;" vertex="1" parent="42">
                    <mxGeometry x="165" y="85" width="70" height="30" as="geometry"/>
                </mxCell>
                <mxCell id="37" value="Monster&lt;br&gt;&lt;i&gt;+isKilled()&lt;/i&gt;" style="whiteSpace=wrap;html=1;" vertex="1" parent="42">
                    <mxGeometry x="80" y="80" width="80" height="40" as="geometry"/>
                </mxCell>
                <mxCell id="40" style="edgeStyle=orthogonalEdgeStyle;rounded=0;html=1;exitX=0.5;exitY=1;exitDx=0;exitDy=0;entryX=0.5;entryY=0;entryDx=0;entryDy=0;endArrow=classic;endFill=1;" edge="1" parent="42" source="21" target="37">
                    <mxGeometry relative="1" as="geometry"/>
                </mxCell>
                <mxCell id="38" style="edgeStyle=none;html=1;entryX=0.5;entryY=1;entryDx=0;entryDy=0;" edge="1" parent="42" source="24" target="37">
                    <mxGeometry relative="1" as="geometry"/>
                </mxCell>
                <mxCell id="41" value="kill(Monster*)" style="text;html=1;align=center;verticalAlign=middle;resizable=0;points=[];autosize=1;strokeColor=none;fillColor=none;" vertex="1" parent="42">
                    <mxGeometry x="120" y="40" width="90" height="30" as="geometry"/>
                </mxCell>
                <mxCell id="46" value="对比策略模式，发现策略模式就是应用了依赖倒转" style="text;html=1;align=center;verticalAlign=middle;resizable=0;points=[];autosize=1;strokeColor=none;fillColor=none;" vertex="1" parent="1">
                    <mxGeometry x="280" y="240" width="290" height="30" as="geometry"/>
                </mxCell>
                <mxCell id="48" value="" style="shape=singleArrow;whiteSpace=wrap;html=1;" vertex="1" parent="1">
                    <mxGeometry x="320" y="170" width="100" height="55" as="geometry"/>
                </mxCell>
                <mxCell id="49" value="" style="group" vertex="1" connectable="0" parent="1">
                    <mxGeometry x="470" y="10" width="570" height="530" as="geometry"/>
                </mxCell>
                <mxCell id="50" value="" style="group" vertex="1" connectable="0" parent="49">
                    <mxGeometry x="250" y="20" width="160" height="90" as="geometry"/>
                </mxCell>
                <mxCell id="51" value="" style="group;fillColor=#eeeeee;strokeColor=#36393d;container=0;" vertex="1" connectable="0" parent="50">
                    <mxGeometry width="160" height="90" as="geometry"/>
                </mxCell>
                <mxCell id="52" value="" style="whiteSpace=wrap;html=1;fillColor=#647687;strokeColor=#314354;fontColor=#ffffff;" vertex="1" parent="50">
                    <mxGeometry x="0.637450199203272" width="159.3625498007967" height="90" as="geometry"/>
                </mxCell>
                <mxCell id="53" value="" style="edgeStyle=none;orthogonalLoop=1;jettySize=auto;html=1;endArrow=none;endFill=0;entryX=1.004;entryY=0.341;entryDx=0;entryDy=0;entryPerimeter=0;rounded=0;" edge="1" parent="50" target="52">
                    <mxGeometry width="100" relative="1" as="geometry">
                        <mxPoint x="0.6374501992031583" y="30.230000000000018" as="sourcePoint"/>
                        <mxPoint x="128" y="30" as="targetPoint"/>
                        <Array as="points"/>
                    </mxGeometry>
                </mxCell>
                <mxCell id="54" value="" style="edgeStyle=none;orthogonalLoop=1;jettySize=auto;html=1;endArrow=none;endFill=0;entryX=1.004;entryY=0.341;entryDx=0;entryDy=0;entryPerimeter=0;rounded=0;" edge="1" parent="50">
                    <mxGeometry width="100" relative="1" as="geometry">
                        <mxPoint y="44.76999999999998" as="sourcePoint"/>
                        <mxPoint x="160" y="45.23000000000002" as="targetPoint"/>
                        <Array as="points"/>
                    </mxGeometry>
                </mxCell>
                <mxCell id="55" value="Strategy" style="text;html=1;align=center;verticalAlign=middle;resizable=0;points=[];autosize=1;strokeColor=none;fillColor=none;" vertex="1" parent="50">
                    <mxGeometry x="45" width="70" height="30" as="geometry"/>
                </mxCell>
                <mxCell id="56" value="&lt;i&gt;+useStrategy(Fighter*)&lt;/i&gt;" style="text;html=1;align=center;verticalAlign=middle;resizable=0;points=[];autosize=1;strokeColor=none;fillColor=none;" vertex="1" parent="50">
                    <mxGeometry x="10" y="50" width="140" height="30" as="geometry"/>
                </mxCell>
                <mxCell id="57" value="" style="group" vertex="1" connectable="0" parent="49">
                    <mxGeometry x="90" y="150" width="160" height="90" as="geometry"/>
                </mxCell>
                <mxCell id="58" value="" style="group;fillColor=#eeeeee;strokeColor=#36393d;container=0;" vertex="1" connectable="0" parent="57">
                    <mxGeometry width="160" height="90" as="geometry"/>
                </mxCell>
                <mxCell id="59" value="" style="whiteSpace=wrap;html=1;fillColor=#647687;strokeColor=#314354;fontColor=#ffffff;" vertex="1" parent="57">
                    <mxGeometry x="0.637450199203272" width="159.3625498007967" height="90" as="geometry"/>
                </mxCell>
                <mxCell id="60" value="" style="edgeStyle=none;orthogonalLoop=1;jettySize=auto;html=1;endArrow=none;endFill=0;entryX=1.004;entryY=0.341;entryDx=0;entryDy=0;entryPerimeter=0;rounded=0;" edge="1" parent="57" target="59">
                    <mxGeometry width="100" relative="1" as="geometry">
                        <mxPoint x="0.6374501992031583" y="30.230000000000018" as="sourcePoint"/>
                        <mxPoint x="128" y="30" as="targetPoint"/>
                        <Array as="points"/>
                    </mxGeometry>
                </mxCell>
                <mxCell id="61" value="" style="edgeStyle=none;orthogonalLoop=1;jettySize=auto;html=1;endArrow=none;endFill=0;entryX=1.004;entryY=0.341;entryDx=0;entryDy=0;entryPerimeter=0;rounded=0;" edge="1" parent="57">
                    <mxGeometry width="100" relative="1" as="geometry">
                        <mxPoint y="44.76999999999998" as="sourcePoint"/>
                        <mxPoint x="160" y="45.23000000000002" as="targetPoint"/>
                        <Array as="points"/>
                    </mxGeometry>
                </mxCell>
                <mxCell id="62" value="Strategy" style="text;html=1;align=center;verticalAlign=middle;resizable=0;points=[];autosize=1;strokeColor=none;fillColor=none;" vertex="1" parent="57">
                    <mxGeometry x="45" width="70" height="30" as="geometry"/>
                </mxCell>
                <mxCell id="63" value="&lt;i&gt;+useStrategy(Fighter*)&lt;/i&gt;" style="text;html=1;align=center;verticalAlign=middle;resizable=0;points=[];autosize=1;strokeColor=none;fillColor=none;" vertex="1" parent="57">
                    <mxGeometry x="10" y="50" width="140" height="30" as="geometry"/>
                </mxCell>
                <mxCell id="64" value="" style="group" vertex="1" connectable="0" parent="49">
                    <mxGeometry x="410" y="150" width="160" height="90" as="geometry"/>
                </mxCell>
                <mxCell id="65" value="" style="group;fillColor=#eeeeee;strokeColor=#36393d;container=0;" vertex="1" connectable="0" parent="64">
                    <mxGeometry width="160" height="90" as="geometry"/>
                </mxCell>
                <mxCell id="66" value="" style="whiteSpace=wrap;html=1;fillColor=#647687;strokeColor=#314354;fontColor=#ffffff;" vertex="1" parent="64">
                    <mxGeometry x="0.637450199203272" width="159.3625498007967" height="90" as="geometry"/>
                </mxCell>
                <mxCell id="67" value="" style="edgeStyle=none;orthogonalLoop=1;jettySize=auto;html=1;endArrow=none;endFill=0;entryX=1.004;entryY=0.341;entryDx=0;entryDy=0;entryPerimeter=0;rounded=0;" edge="1" parent="64" target="66">
                    <mxGeometry width="100" relative="1" as="geometry">
                        <mxPoint x="0.6374501992031583" y="30.230000000000018" as="sourcePoint"/>
                        <mxPoint x="128" y="30" as="targetPoint"/>
                        <Array as="points"/>
                    </mxGeometry>
                </mxCell>
                <mxCell id="68" value="" style="edgeStyle=none;orthogonalLoop=1;jettySize=auto;html=1;endArrow=none;endFill=0;entryX=1.004;entryY=0.341;entryDx=0;entryDy=0;entryPerimeter=0;rounded=0;" edge="1" parent="64">
                    <mxGeometry width="100" relative="1" as="geometry">
                        <mxPoint y="44.76999999999998" as="sourcePoint"/>
                        <mxPoint x="160" y="45.23000000000002" as="targetPoint"/>
                        <Array as="points"/>
                    </mxGeometry>
                </mxCell>
                <mxCell id="69" value="Strategy" style="text;html=1;align=center;verticalAlign=middle;resizable=0;points=[];autosize=1;strokeColor=none;fillColor=none;" vertex="1" parent="64">
                    <mxGeometry x="45" width="70" height="30" as="geometry"/>
                </mxCell>
                <mxCell id="70" value="&lt;i&gt;+useStrategy(Fighter*)&lt;/i&gt;" style="text;html=1;align=center;verticalAlign=middle;resizable=0;points=[];autosize=1;strokeColor=none;fillColor=none;" vertex="1" parent="64">
                    <mxGeometry x="10" y="50" width="140" height="30" as="geometry"/>
                </mxCell>
                <mxCell id="71" style="edgeStyle=orthogonalEdgeStyle;html=1;entryX=0.5;entryY=1;entryDx=0;entryDy=0;rounded=0;" edge="1" parent="49" source="62" target="52">
                    <mxGeometry relative="1" as="geometry">
                        <Array as="points">
                            <mxPoint x="170" y="130"/>
                            <mxPoint x="330" y="130"/>
                        </Array>
                    </mxGeometry>
                </mxCell>
                <mxCell id="72" style="edgeStyle=orthogonalEdgeStyle;rounded=0;html=1;endArrow=none;endFill=0;" edge="1" parent="49" source="69">
                    <mxGeometry relative="1" as="geometry">
                        <mxPoint x="330" y="130" as="targetPoint"/>
                        <Array as="points">
                            <mxPoint x="490" y="130"/>
                        </Array>
                    </mxGeometry>
                </mxCell>
                <mxCell id="73" value="" style="group" vertex="1" connectable="0" parent="49">
                    <mxGeometry width="160.32" height="130" as="geometry"/>
                </mxCell>
                <mxCell id="74" value="" style="group;fillColor=#eeeeee;strokeColor=#36393d;container=0;" vertex="1" connectable="0" parent="73">
                    <mxGeometry x="0.3199999999999932" width="160" height="130" as="geometry"/>
                </mxCell>
                <mxCell id="75" value="" style="edgeStyle=none;orthogonalLoop=1;jettySize=auto;html=1;endArrow=none;endFill=0;entryX=1.004;entryY=0.341;entryDx=0;entryDy=0;entryPerimeter=0;rounded=0;" edge="1" parent="73">
                    <mxGeometry width="100" relative="1" as="geometry">
                        <mxPoint x="0.3199999999999932" y="30.909090909090914" as="sourcePoint"/>
                        <mxPoint x="160.32" y="31.53636363636369" as="targetPoint"/>
                        <Array as="points"/>
                    </mxGeometry>
                </mxCell>
                <mxCell id="76" value="" style="edgeStyle=none;orthogonalLoop=1;jettySize=auto;html=1;endArrow=none;endFill=0;entryX=1.004;entryY=0.341;entryDx=0;entryDy=0;entryPerimeter=0;rounded=0;" edge="1" parent="73">
                    <mxGeometry width="100" relative="1" as="geometry">
                        <mxPoint y="44.54545454545454" as="sourcePoint"/>
                        <mxPoint x="160" y="45.17272727272732" as="targetPoint"/>
                        <Array as="points"/>
                    </mxGeometry>
                </mxCell>
                <mxCell id="77" value="Fighter" style="text;html=1;align=center;verticalAlign=middle;resizable=0;points=[];autosize=1;strokeColor=none;fillColor=none;" vertex="1" parent="73">
                    <mxGeometry x="50.15999999999994" width="60" height="30" as="geometry"/>
                </mxCell>
                <mxCell id="78" value="+Fighter()&lt;br&gt;+addLife()&lt;br&gt;+addMagic()&lt;br&gt;+setStrategy(Strategy*)&lt;br&gt;+useStrategy()" style="text;html=1;align=center;verticalAlign=middle;resizable=0;points=[];autosize=1;strokeColor=none;fillColor=none;" vertex="1" parent="73">
                    <mxGeometry x="5.15999999999994" y="39.997727272727275" width="150" height="90" as="geometry"/>
                </mxCell>
                <mxCell id="79" style="edgeStyle=none;html=1;exitX=0;exitY=0.5;exitDx=0;exitDy=0;rounded=0;strokeColor=default;endArrow=classic;endFill=1;" edge="1" parent="49" source="80">
                    <mxGeometry relative="1" as="geometry">
                        <mxPoint x="250" y="60" as="targetPoint"/>
                    </mxGeometry>
                </mxCell>
                <mxCell id="80" value="" style="triangle;whiteSpace=wrap;html=1;rotation=-180;" vertex="1" parent="49">
                    <mxGeometry x="160" y="50" width="10" height="20" as="geometry"/>
                </mxCell>
                <mxCell id="81" value="" style="shape=singleArrow;direction=south;whiteSpace=wrap;html=1;" vertex="1" parent="49">
                    <mxGeometry x="320" y="220" width="30" height="50" as="geometry"/>
                </mxCell>
                <mxCell id="83" value="Fighter" style="whiteSpace=wrap;html=1;" vertex="1" parent="49">
                    <mxGeometry x="250" y="310" width="80" height="40" as="geometry"/>
                </mxCell>
                <mxCell id="84" value="Undead&lt;br&gt;&lt;i style=&quot;border-color: var(--border-color);&quot;&gt;+useStrategy(Fighter*)&lt;/i&gt;" style="whiteSpace=wrap;html=1;" vertex="1" parent="49">
                    <mxGeometry x="115" y="470" width="120" height="40" as="geometry"/>
                </mxCell>
                <mxCell id="85" value="Element&lt;br&gt;&lt;i style=&quot;border-color: var(--border-color);&quot;&gt;+useStrategy(Fighter*)&lt;/i&gt;" style="whiteSpace=wrap;html=1;" vertex="1" parent="49">
                    <mxGeometry x="230" y="470" width="120" height="40" as="geometry"/>
                </mxCell>
                <mxCell id="86" value="Mechanic&lt;br&gt;&lt;i style=&quot;border-color: var(--border-color);&quot;&gt;+useStrategy(Fighter*)&lt;/i&gt;" style="whiteSpace=wrap;html=1;" vertex="1" parent="49">
                    <mxGeometry x="350" y="470" width="100" height="40" as="geometry"/>
                </mxCell>
                <mxCell id="87" style="edgeStyle=orthogonalEdgeStyle;html=1;exitX=0.5;exitY=0;exitDx=0;exitDy=0;entryX=0.5;entryY=0;entryDx=0;entryDy=0;rounded=0;endArrow=none;endFill=0;" edge="1" parent="49" source="84" target="86">
                    <mxGeometry relative="1" as="geometry">
                        <mxPoint x="360" y="430" as="targetPoint"/>
                        <Array as="points">
                            <mxPoint x="175" y="440"/>
                            <mxPoint x="400" y="440"/>
                        </Array>
                    </mxGeometry>
                </mxCell>
                <mxCell id="89" value="底层组件(具体类)" style="text;html=1;align=center;verticalAlign=middle;resizable=0;points=[];autosize=1;strokeColor=none;fillColor=none;" vertex="1" parent="49">
                    <mxGeometry x="240" y="510" width="120" height="30" as="geometry"/>
                </mxCell>
                <mxCell id="90" value="高层组件" style="text;html=1;align=center;verticalAlign=middle;resizable=0;points=[];autosize=1;strokeColor=none;fillColor=none;" vertex="1" parent="49">
                    <mxGeometry x="330" y="310" width="70" height="30" as="geometry"/>
                </mxCell>
                <mxCell id="91" value="间接操作" style="text;html=1;align=center;verticalAlign=middle;resizable=0;points=[];autosize=1;strokeColor=none;fillColor=none;" vertex="1" parent="49">
                    <mxGeometry x="370" y="385" width="70" height="30" as="geometry"/>
                </mxCell>
                <mxCell id="92" value="Monster&lt;br&gt;&lt;i&gt;+useStrategy(Fighter*)&lt;/i&gt;" style="whiteSpace=wrap;html=1;" vertex="1" parent="49">
                    <mxGeometry x="210" y="380" width="160" height="40" as="geometry"/>
                </mxCell>
                <mxCell id="93" style="edgeStyle=orthogonalEdgeStyle;rounded=0;html=1;exitX=0.5;exitY=1;exitDx=0;exitDy=0;entryX=0.5;entryY=0;entryDx=0;entryDy=0;endArrow=classic;endFill=1;" edge="1" parent="49" source="83" target="92">
                    <mxGeometry relative="1" as="geometry"/>
                </mxCell>
                <mxCell id="94" style="edgeStyle=none;html=1;entryX=0.5;entryY=1;entryDx=0;entryDy=0;" edge="1" parent="49" source="85" target="92">
                    <mxGeometry relative="1" as="geometry"/>
                </mxCell>
                <mxCell id="95" value="useStrategy(Strategy*)" style="text;html=1;align=center;verticalAlign=middle;resizable=0;points=[];autosize=1;strokeColor=none;fillColor=none;" vertex="1" parent="49">
                    <mxGeometry x="295" y="350" width="140" height="30" as="geometry"/>
                </mxCell>
                <mxCell id="97" value="唯一区别是策略需要对Fighter产生影响需要参数" style="text;html=1;align=center;verticalAlign=middle;resizable=0;points=[];autosize=1;strokeColor=none;fillColor=none;" vertex="1" parent="49">
                    <mxGeometry x="280" y="420" width="280" height="30" as="geometry"/>
                </mxCell>
                <mxCell id="98" value="+setStrategy(Strategy*)&lt;br&gt;+addLife()&lt;br&gt;+addMagic()" style="text;html=1;align=center;verticalAlign=middle;resizable=0;points=[];autosize=1;strokeColor=none;fillColor=none;" vertex="1" parent="49">
                    <mxGeometry x="95" y="300" width="150" height="60" as="geometry"/>
                </mxCell>
            </root>
        </mxGraphModel>
    </diagram>
</mxfile>